<?xml version="1.0" encoding="UTF-8"?>
<svg width="400px" height="200px" viewBox="0 0 400 200" version="1.1" xmlns="http://www.w3.org/2000/svg" xmlns:xlink="http://www.w3.org/1999/xlink">
    <!-- Generator: Sketch 3.8.3 (29802) - http://www.bohemiancoding.com/sketch -->
    <title>logo01</title>
    <desc>Created with Sketch.</desc>
    <defs></defs>
    <g id="Symbols" stroke="none" stroke-width="1" fill="none" fill-rule="evenodd">
        <g id="logo01">
            <g id="Group" transform="translate(64.000000, 43.000000)">
                <path d="M11.2803702,64.3984575 C11.3523702,64.9024575 11.8563702,65.2264575 12.2163702,65.5504575 C12.5403702,65.8384575 12.9723702,66.3064575 13.4763702,66.3064575 L13.7643702,66.3064575 C14.3043702,66.2344575 14.5563702,65.5504575 14.8443702,65.1544575 C15.1683702,64.7224575 15.7443702,64.3264575 15.6723702,63.7864575 C15.6363702,63.3544575 15.6003702,62.9224575 15.5283702,62.5264575 C15.4923702,62.0944575 14.9163702,61.7344575 14.8443702,61.3384575 C14.8083702,60.9064575 15.1323702,60.6544575 15.0603702,60.2224575 C15.6363702,60.1144575 16.0323702,60.0064575 16.5723702,59.8984575 C17.1123702,59.8264575 17.6163702,59.5024575 18.1563702,59.3944575 C18.7323702,59.3224575 19.3083702,59.5024575 19.8483702,59.3944575 C20.3883702,59.2864575 20.7483702,58.6744575 21.0363702,58.2424575 C21.3243702,57.8464575 21.4323702,57.3424575 21.3243702,56.8024575 C21.2163702,56.2624575 20.9643702,55.7584575 20.5323702,55.5064575 C20.1363702,55.2184575 19.5963702,55.3264575 19.0563702,55.4344575 C18.5523702,55.5424575 17.9763702,55.5064575 17.4723702,55.5784575 C16.9323702,55.6864575 16.3923702,55.6864575 15.8523702,55.7944575 C15.3123702,55.9024575 14.7723702,56.0824575 14.2323702,56.1904575 C14.1603702,55.7944575 14.3043702,55.2544575 14.2323702,54.8584575 C14.1603702,54.4624575 13.8723702,54.0664575 13.8003702,53.6704575 C13.7283702,53.2744575 13.5843702,52.7344575 13.5123702,52.3384575 C14.0163702,52.2304575 14.6283702,52.1224575 15.0963702,52.0504575 C15.6003702,51.9784575 16.1043702,52.0864575 16.5723702,52.0144575 C17.1123702,51.9424575 17.7243702,51.6904575 18.0483702,51.2584575 C18.3363702,50.8624575 18.4083702,50.1784575 18.3003702,49.6384575 C18.1923702,49.0984575 17.7603702,48.7024575 17.3283702,48.4144575 C16.9323702,48.0904575 16.4643702,48.1984575 15.9243702,48.2704575 C15.4563702,48.3424575 14.9523702,48.4504575 14.4483702,48.5584575 C13.9803702,48.6304575 13.4403702,48.4144575 12.9363702,48.4864575 C12.8283702,47.8744575 12.5403702,47.2984575 12.4323702,46.6504575 C12.3243702,46.1104575 12.2523702,45.5344575 11.8203702,45.2464575 C11.3883702,44.9584575 10.8123702,44.9584575 10.2723702,45.0664575 C9.73237024,45.1744575 9.37237024,45.5344575 9.08437024,45.9304575 C8.79637024,46.3624575 8.65237024,46.7944575 8.72437024,47.3344575 C8.72437024,47.3704575 8.83237024,47.3344575 8.83237024,47.3344575 C8.94037024,47.9104575 8.83237024,48.4864575 8.94037024,49.0624575 C8.40037024,49.1344575 7.86037024,49.0984575 7.35637024,49.1704575 C6.78037024,49.2424575 6.24037024,49.4224575 5.73637024,49.4944575 C5.16037024,49.5664575 4.58437024,49.5664575 4.11637024,49.6384575 C3.54037024,49.7104575 3.03637024,49.9984575 2.71237024,50.3944575 C2.38837024,50.7904575 2.10037024,51.3664575 2.17237024,51.9424575 C2.24437024,52.4464575 2.49637024,53.0584575 2.82037024,53.3824575 C3.18037024,53.6704575 3.82837024,53.7064575 4.33237024,53.7064575 C4.40437024,53.7064575 4.47637024,53.5984575 4.54837024,53.5984575 C4.94437024,53.5624575 5.41237024,53.8144575 5.88037024,53.7784575 C6.27637024,53.7424575 6.63637024,53.1664575 7.10437024,53.0944575 C7.50037024,53.0584575 7.96837024,53.2384575 8.40037024,53.1664575 C8.83237024,53.1304575 9.26437024,53.0944575 9.69637024,53.0224575 C9.76837024,53.4544575 9.76837024,53.8504575 9.84037024,54.2824575 C9.91237024,54.6784575 10.1643702,55.0744575 10.2363702,55.4704575 C10.3083702,55.9024575 10.3443702,56.3704575 10.4163702,56.8024575 C9.94837024,56.8744575 9.40837024,57.0544575 8.94037024,57.1264575 C8.47237024,57.1984575 7.96837024,56.8384575 7.50037024,56.8744575 C7.03237024,56.9464575 6.63637024,57.4144575 6.16837024,57.4864575 C5.70037024,57.5224575 5.19637024,57.3424575 4.72837024,57.4144575 C4.26037024,57.4504575 3.79237024,57.5944575 3.36037024,57.6304575 C2.85637024,57.6664575 2.38837024,57.5584575 1.92037024,57.6304575 C1.38037024,57.6664575 0.84037024,58.0624575 0.51637024,58.4224575 C0.19237024,58.8184575 -0.0596297598,59.4304575 0.0123702402,59.9704575 C0.0483702402,60.5104575 0.26437024,61.1224575 0.62437024,61.4464575 C0.98437024,61.7704575 1.63237024,61.7704575 2.13637024,61.7704575 C2.20837024,61.7704575 2.28037024,61.9504575 2.35237024,61.9504575 C2.82037024,61.9144575 3.25237024,61.5184575 3.75637024,61.4824575 C4.22437024,61.4104575 4.72837024,61.7704575 5.23237024,61.6984575 C5.70037024,61.6624575 6.13237024,61.1584575 6.60037024,61.0864575 C7.10437024,61.0504575 7.60837024,61.3384575 8.11237024,61.3024575 C8.58037024,61.2304575 9.04837024,61.1224575 9.51637024,61.0504575 C10.0203702,60.9784575 10.5603702,60.6184575 11.0283702,60.5464575 C11.1003702,60.9424575 10.9923702,61.5184575 11.0283702,61.9144575 C11.1003702,62.3464575 11.1723702,62.7424575 11.2443702,63.1384575 C11.3163702,63.5704575 11.2083702,64.0024575 11.2803702,64.3984575 L11.2803702,64.3984575 Z M17.2923702,69.2584575 C16.9323702,69.6904575 16.4643702,69.9424575 16.0683702,70.2304575 C15.6363702,70.5544575 15.3483702,71.0944575 14.8443702,71.3104575 C14.3763702,71.4544575 13.8723702,71.7424575 13.2603702,71.8144575 C12.7923702,71.8864575 12.2163702,71.6344575 11.6403702,71.6704575 C11.2083702,71.6704575 10.6323702,71.7424575 10.0923702,71.5984575 C9.62437024,71.4184575 9.19237024,71.0584575 8.76037024,70.8064575 C8.32837024,70.4824575 8.00437024,70.1224575 7.75237024,69.7264575 C7.46437024,69.3304575 7.17637024,68.8984575 7.10437024,68.3584575 C7.03237024,67.8184575 7.03237024,67.1344575 6.63637024,66.8104575 C6.20437024,66.5224575 5.59237024,66.7744575 5.05237024,66.8104575 C4.47637024,66.8824575 4.08037024,66.9904575 3.75637024,67.3864575 C3.43237024,67.7824575 3.43237024,68.2144575 3.50437024,68.7544575 C3.57637024,69.3304575 3.50437024,69.8344575 3.68437024,70.3384575 C3.86437024,70.8424575 3.90037024,71.4544575 4.18837024,71.9224575 C4.47637024,72.3544575 4.76437024,72.8584575 5.16037024,73.2544575 C5.52037024,73.6504575 6.06037024,73.9024575 6.49237024,74.1904575 C6.88837024,74.4424575 7.24837024,74.7664575 7.64437024,74.9464575 C8.04037024,75.1624575 8.54437024,75.1984575 8.94037024,75.3424575 C9.40837024,75.4864575 9.84037024,75.5944575 10.2723702,75.6664575 C10.7403702,75.7384575 11.2083702,75.5224575 11.6403702,75.5224575 C11.7123702,75.5224575 11.7843702,75.8464575 11.8563702,75.8464575 C12.3243702,75.8464575 12.7563702,75.4504575 13.2243702,75.4144575 C13.6923702,75.3784575 14.1963702,75.6304575 14.6643702,75.5224575 C15.0963702,75.4144575 15.6003702,75.4144575 16.0323702,75.2704575 C16.5003702,75.0904575 16.7523702,74.4784575 17.1483702,74.2624575 C17.5803702,74.0824575 17.9403702,73.8304575 18.3363702,73.5784575 C18.6963702,73.2904575 19.0563702,73.0744575 19.4163702,72.7504575 C19.7403702,72.4264575 20.1363702,72.1744575 20.4603702,71.8144575 C20.7843702,71.3824575 21.0723702,70.8784575 21.0003702,70.3384575 C20.9643702,69.8344575 20.7483702,69.2224575 20.3163702,68.8624575 C19.8843702,68.5024575 19.2723702,68.7904575 18.7323702,68.8624575 C18.2283702,68.8984575 17.6523702,68.8264575 17.2923702,69.2584575 L17.2923702,69.2584575 Z M46.4523702,68.7184575 C46.4163702,69.2224575 46.4883702,69.8704575 46.3803702,70.2664575 C46.2363702,70.8064575 45.7323702,71.1304575 45.4803702,71.4544575 C45.0123702,72.1384575 44.6163702,72.7864575 43.8243702,72.8584575 C43.6443702,72.8944575 43.4643702,72.4984575 43.3203702,72.4984575 C42.4923702,72.4984575 42.0603702,72.3184575 41.8083702,72.1024575 C41.5563702,71.8864575 41.2323702,71.7424575 41.2323702,71.2384575 L41.2683702,71.2384575 C41.2683702,71.2024575 41.6283702,71.2024575 41.6283702,71.1664575 C41.6643702,70.4104575 41.7723702,70.1584575 42.1683702,69.7984575 C42.5283702,69.4384575 43.0683702,68.9344575 43.8963702,68.8624575 C44.2923702,68.8264575 44.7243702,68.9704575 45.1563702,68.9704575 C45.5523702,68.9344575 46.0203702,68.7184575 46.4523702,68.7184575 L46.4523702,68.7184575 Z M55.6323702,57.6664575 C55.6323702,57.1264575 55.4163702,56.7304575 55.0563702,56.4064575 C54.6963702,56.0824575 54.3003702,55.6864575 53.7963702,55.6864575 C53.0043702,55.6864575 53.0043702,55.7224575 52.2123702,55.7224575 C51.4203702,55.7224575 51.4203702,55.9744575 50.6283702,56.0104575 C49.8363702,56.0104575 49.7283702,56.2624575 48.9723702,56.0464575 C48.9003702,55.5424575 48.7203702,54.8584575 48.6483702,54.4264575 C48.5763702,53.8864575 48.4683702,53.4184575 48.4323702,53.0224575 C48.3603702,52.4824575 48.3963702,51.9064575 48.0003702,51.6184575 C47.6043702,51.2944575 47.0643702,51.4744575 46.5243702,51.5464575 C45.9843702,51.6184575 45.6243702,51.7624575 45.3363702,52.1584575 C45.0123702,52.5544575 44.6523702,53.0224575 44.7243702,53.5264575 C44.7963702,53.9224575 44.9403702,54.3904575 45.0123702,54.9664575 C45.0483702,55.3984575 45.4443702,55.8304575 45.4803702,56.3344575 C45.5523702,56.8024575 45.0843702,57.3424575 45.1563702,57.8104575 C45.1923702,58.2784575 45.3363702,58.7464575 45.3723702,59.2504575 C45.4443702,59.7184575 45.6963702,60.1864575 45.7683702,60.6544575 C45.8043702,61.1224575 46.0923702,61.5904575 46.1643702,62.0584575 C46.2003702,62.5264575 45.8403702,63.0664575 45.8763702,63.5344575 C45.9483702,64.0384575 46.0203702,64.3624575 46.0563702,64.8304575 C45.5883702,64.8304575 45.3003702,65.2624575 44.8683702,65.2984575 C44.4003702,65.2984575 43.9323702,65.0824575 43.5003702,65.1184575 C42.9963702,65.1544575 42.4923702,65.2264575 42.0243702,65.3344575 C41.5563702,65.4784575 41.1603702,65.8024575 40.7283702,66.0544575 C40.2963702,66.2704575 39.9723702,66.6304575 39.6123702,66.9544575 C39.2163702,67.3144575 38.7843702,67.5664575 38.4963702,68.0344575 C38.2083702,68.4664575 38.1003702,68.9704575 37.9563702,69.4744575 C37.8123702,69.9784575 37.5243702,70.4464575 37.4883702,70.9864575 C37.4883702,71.0584575 37.3083702,71.1664575 37.3083702,71.2384575 C37.3083702,71.7064575 37.8123702,72.1384575 37.9203702,72.6064575 C38.0643702,73.0744575 37.9203702,73.6504575 38.1723702,74.0464575 C38.4243702,74.4784575 38.8923702,74.7664575 39.2523702,75.0904575 C39.6123702,75.4144575 40.1163702,75.4864575 40.5483702,75.7024575 C40.9803702,75.8824575 41.3403702,76.3864575 41.8443702,76.4944575 C42.3123702,76.5664575 42.8163702,76.4224575 43.3203702,76.4224575 C43.5723702,76.4224575 43.8243702,76.3144575 44.1123702,76.3144575 C44.5803702,76.2424575 45.0843702,76.4224575 45.5163702,76.2784575 C45.9843702,76.1344575 46.4523702,75.9904575 46.8483702,75.7384575 C47.2443702,75.4864575 47.6763702,75.1984575 48.0363702,74.9104575 C48.3603702,74.5864575 48.5763702,74.0824575 48.8283702,73.6864575 C49.1163702,73.2544575 49.4043702,72.7504575 49.5843702,72.2104575 C49.8003702,71.7064575 49.6923702,71.1304575 49.8003702,70.5544575 C49.9083702,70.0504575 50.0883702,69.4384575 50.1243702,68.8624575 C50.8803702,68.9704575 51.6363702,69.2584575 52.2483702,69.4024575 C52.7883702,69.5104575 53.2563702,69.2944575 53.6883702,69.0424575 C54.1203702,68.7904575 54.2643702,68.3584575 54.3723702,67.8544575 C54.5163702,67.3144575 54.4803702,66.9184575 54.2283702,66.5224575 C53.9763702,66.0904575 53.6883702,65.6224575 53.1483702,65.5144575 C52.6803702,65.4064575 52.1403702,65.2624575 51.6363702,65.1904575 C51.1323702,65.1184575 50.6643702,65.0464575 50.1243702,65.0104575 C50.0883702,64.5424575 49.9803702,64.1824575 49.9443702,63.7144575 C49.9083702,63.2824575 49.8003702,62.8504575 49.7643702,62.3824575 C49.7283702,61.9144575 49.5483702,61.4824575 49.4763702,61.0504575 C49.4403702,60.5824575 49.6203702,60.2944575 49.5843702,59.8624575 C50.2683702,59.6104575 50.2323702,59.9344575 50.9523702,59.9344575 C51.6723702,59.8984575 51.6723702,59.8624575 52.3923702,59.8624575 C53.1123702,59.8624575 53.1123702,59.6824575 53.8323702,59.6824575 C54.3723702,59.6464575 54.6963702,59.2144575 55.0203702,58.8544575 C55.3803702,58.4944575 55.6323702,58.1704575 55.6323702,57.6664575 L55.6323702,57.6664575 Z M91.0563702,62.4544575 C91.0563702,61.9504575 90.9843702,61.4464575 90.8763702,60.9424575 C90.8043702,60.4384575 90.8403702,59.8984575 90.6603702,59.4304575 C90.4803702,58.9624575 90.1923702,58.4944575 89.9043702,58.0624575 C89.6523702,57.7024575 89.4003702,57.3784575 89.0763702,57.0904575 C88.7883702,56.8024575 88.3203702,56.6584575 87.9603702,56.4424575 C87.6363702,56.1904575 87.3843702,55.7944575 86.9883702,55.6144575 C86.6283702,55.4344575 86.1963702,55.3624575 85.7643702,55.2184575 C85.4043702,55.1104575 85.0443702,54.7864575 84.6483702,54.7144575 C84.2523702,54.6424575 83.7843702,54.9304575 83.3883702,54.8944575 C82.9923702,54.8584575 82.5963702,54.9304575 82.1643702,54.9304575 C81.6963702,54.9304575 81.2643702,55.0024575 80.7963702,55.0744575 C80.3283702,55.1104575 79.8243702,54.7504575 79.3563702,54.8224575 C78.8883702,54.8944575 78.4203702,54.9664575 77.9523702,55.0744575 C77.5203702,55.1824575 77.1243702,55.5424575 76.6563702,55.6864575 C76.2243702,55.8304575 75.7563702,55.9024575 75.3243702,56.0824575 C74.8203702,56.2984575 74.4963702,56.7664575 74.3163702,57.2344575 C74.1003702,57.7384575 74.1363702,58.2064575 74.3163702,58.7104575 C74.5323702,59.2144575 74.8563702,59.6104575 75.3243702,59.8264575 C75.7923702,60.0064575 76.3683702,60.1504575 76.9083702,59.9704575 C77.3043702,59.7904575 77.7003702,59.5024575 78.1323702,59.3584575 C78.5643702,59.2144575 78.9603702,58.8904575 79.3923702,58.7824575 C79.8603702,58.7104575 80.3283702,58.6384575 80.7963702,58.6024575 C81.2643702,58.5304575 81.7323702,58.8544575 82.1643702,58.8544575 C82.5963702,58.8544575 82.9923702,58.9624575 83.3523702,58.9984575 C83.7843702,59.0704575 84.2883702,58.7104575 84.6123702,58.8184575 C85.0803702,58.9984575 85.2963702,59.5384575 85.5843702,59.7184575 C86.0163702,60.0064575 86.3763702,60.1504575 86.5923702,60.4384575 C86.7723702,60.7264575 87.0963702,60.9784575 87.2043702,61.3384575 C87.2763702,61.6624575 86.9163702,62.0584575 86.9163702,62.4544575 C86.9163702,62.7784575 87.2043702,63.1744575 87.1683702,63.5344575 C87.0963702,63.8944575 87.0603702,64.2544575 86.9523702,64.6144575 C86.8443702,65.0824575 86.4843702,65.4424575 86.3043702,65.8384575 C86.1243702,66.2704575 86.0523702,66.7384575 85.8003702,67.0984575 C85.5483702,67.4944575 85.2963702,67.8904575 85.0083702,68.2144575 C84.6843702,68.5744575 84.4323702,68.9704575 84.0723702,69.2944575 C83.7483702,69.5824575 83.3163702,69.7984575 82.9203702,70.0504575 C82.5603702,70.3024575 81.9483702,70.1224575 81.5163702,70.3024575 C81.1203702,70.4824575 80.9043702,71.1664575 80.4723702,71.3104575 C79.9323702,71.4904575 79.2483702,71.5264575 79.0323702,71.9944575 C78.8163702,72.4264575 79.1403702,73.0024575 79.3203702,73.5424575 C79.4643702,73.9384575 79.4643702,74.4424575 79.7883702,74.6944575 C80.1123702,74.9104575 80.6163702,74.9824575 81.0483702,74.9824575 C81.2643702,74.9824575 81.5523702,75.0904575 81.7683702,75.0184575 C82.2363702,74.8384575 82.5603702,74.3344575 83.0283702,74.1544575 C83.4603702,73.9384575 83.9283702,73.7944575 84.3603702,73.5424575 C84.7923702,73.2904575 85.1523702,72.9664575 85.5483702,72.6784575 C85.9803702,72.3904575 86.5563702,72.3184575 86.9163702,71.9944575 C87.2763702,71.6704575 87.5643702,71.2024575 87.8883702,70.8424575 C88.2123702,70.4824575 88.7163702,70.2304575 89.0043702,69.8344575 C89.2923702,69.4384575 89.4363702,68.8984575 89.6883702,68.4664575 C89.9043702,68.0344575 90.1563702,67.5664575 90.3363702,67.0984575 C90.5163702,66.6664575 90.4803702,66.1264575 90.6243702,65.6224575 C90.7683702,65.1184575 90.7683702,64.5784575 90.8403702,64.0384575 C90.9123702,63.4984575 91.0563702,62.9944575 91.0563702,62.4544575 L91.0563702,62.4544575 Z M88.6803702,48.6304575 C88.6803702,48.0544575 88.7883702,47.5144575 88.4283702,47.1544575 C88.0683702,46.7944575 87.4923702,46.5064575 86.9523702,46.5064575 C86.4843702,46.5064575 86.0163702,46.3624575 85.5843702,46.3624575 C85.1163702,46.3264575 84.6483702,46.5064575 84.2163702,46.4704575 C83.7483702,46.4344575 83.2443702,46.6504575 82.8123702,46.6144575 C82.3443702,46.5424575 81.9123702,46.3984575 81.4443702,46.3264575 C80.9763702,46.2544575 80.5803702,45.8584575 80.1483702,45.7864575 C79.6803702,45.6784575 79.1763702,45.9664575 78.7443702,45.8584575 C78.2043702,45.7504575 77.5923702,45.5344575 77.1603702,45.7864575 C76.7283702,46.0744575 76.6563702,46.6864575 76.5483702,47.2264575 C76.4043702,47.7664575 76.2963702,48.2704575 76.5483702,48.7024575 C76.8363702,49.1344575 77.2323702,49.6384575 77.7723702,49.7824575 C77.8083702,49.7824575 77.7723702,49.8544575 77.8083702,49.8544575 C78.2763702,49.9624575 78.8163702,49.9624575 79.3203702,50.0704575 C79.8243702,50.1424575 80.3283702,50.2504575 80.8323702,50.3224575 C81.3363702,50.3944575 81.8403702,50.4304575 82.3443702,50.4664575 C82.8483702,50.5384575 83.3883702,50.2144575 83.8923702,50.2504575 C84.3963702,50.2864575 84.9003702,50.5744575 85.4043702,50.5744575 C85.9083702,50.6104575 86.4123702,50.6824575 86.9523702,50.6824575 C87.4923702,50.6824575 88.0683702,50.4664575 88.4283702,50.1064575 C88.7883702,49.7464575 88.6803702,49.1704575 88.6803702,48.6304575 L88.6803702,48.6304575 Z M127.41637,68.3584575 C127.30837,67.8184575 127.23637,67.2424575 126.80437,66.9544575 C126.37237,66.7024575 125.83237,66.8824575 125.29237,66.9904575 C124.96837,67.0624575 124.50037,66.9904575 123.99637,67.0624575 C123.60037,67.1344575 123.20437,67.2784575 122.73637,67.3504575 C122.34037,67.3864575 121.87237,67.2064575 121.44037,67.2424575 C121.00837,67.2424575 120.57637,67.5304575 120.14437,67.5304575 C119.74837,67.5304575 119.35237,67.4584575 118.95637,67.4224575 C118.56037,67.4224575 118.16437,67.4944575 117.76837,67.4584575 C116.86837,67.3864575 116.65237,66.7384575 116.40037,66.4504575 C116.14837,66.1624575 115.89637,65.9104575 115.89637,65.3344575 C115.86037,64.7584575 116.00437,64.0744575 116.36437,63.4624575 C116.58037,63.1024575 116.94037,62.7424575 117.30037,62.3464575 C117.58837,62.0224575 117.76837,61.4824575 118.12837,61.1584575 C118.48837,60.8344575 119.06437,60.7984575 119.46037,60.4744575 C119.82037,60.1864575 120.03637,59.6824575 120.43237,59.3944575 C120.82837,59.1064575 121.15237,58.7464575 121.54837,58.4584575 C121.94437,58.2064575 122.37637,57.9544575 122.80837,57.7024575 C123.20437,57.4504575 123.78037,57.4864575 124.21237,57.2704575 C124.64437,57.0184575 124.89637,56.5144575 125.32837,56.2984575 C125.79637,56.0464575 126.26437,55.7584575 126.40837,55.2544575 C126.55237,54.7504575 126.48037,54.1744575 126.22837,53.7064575 C125.97637,53.2024575 125.54437,52.6984575 125.07637,52.5544575 C124.57237,52.4104575 124.06837,52.8064575 123.56437,53.0944575 L123.52837,52.9504575 C123.09637,53.2024575 122.77237,53.5624575 122.34037,53.8144575 C121.94437,54.0664575 121.40437,54.0664575 121.00837,54.3184575 C120.61237,54.5704575 120.36037,55.0744575 119.96437,55.3264575 C119.56837,55.5784575 118.95637,55.5424575 118.56037,55.7944575 C118.16437,56.0824575 117.80437,56.7304575 117.44437,57.0184575 C117.12037,56.6584575 117.04837,55.8304575 116.72437,55.4344575 C116.40037,55.0384575 115.89637,54.7864575 115.60837,54.3904575 C115.32037,53.9584575 115.06837,53.5264575 114.81637,53.0944575 C114.56437,52.6624575 114.45637,52.1584575 114.24037,51.7264575 C113.98837,51.2584575 113.70037,50.8624575 113.48437,50.4304575 C113.26837,49.9264575 112.83637,49.4944575 112.36837,49.3144575 C111.86437,49.1344575 111.32437,49.3144575 110.82037,49.5304575 C110.31637,49.7464575 109.66837,49.9624575 109.45237,50.4304575 C109.27237,50.8984575 109.66837,51.5104575 109.88437,52.0144575 C110.06437,52.4464575 109.95637,53.0224575 110.20837,53.4904575 C110.42437,53.9224575 110.92837,54.2104575 111.14437,54.6424575 C111.39637,55.0384575 111.61237,55.4704575 111.90037,55.9024575 C112.15237,56.2984575 112.44037,56.6944575 112.72837,57.0904575 C113.01637,57.4864575 113.05237,58.0624575 113.34037,58.4584575 C113.66437,58.8544575 114.09637,59.0344575 114.42037,59.4304575 C114.13237,59.7184575 114.16837,60.2224575 113.91637,60.5464575 C113.66437,60.8704575 113.08837,60.9784575 112.87237,61.3024575 C112.62037,61.6984575 112.72837,62.2744575 112.54837,62.6704575 C112.36837,63.1024575 111.82837,63.4264575 111.75637,63.8944575 C111.64837,64.3624575 111.57637,64.8664575 111.57637,65.2984575 C111.57637,65.8024575 112.11637,66.1984575 112.22437,66.6664575 C112.33237,67.1344575 112.18837,67.6744575 112.40437,68.1064575 C112.62037,68.5024575 113.05237,68.7544575 113.37637,69.1504575 C113.73637,69.5104575 113.98837,70.0144575 114.45637,70.2664575 C114.88837,70.5544575 115.42837,70.6624575 115.93237,70.8064575 C116.43637,70.9504575 116.94037,71.0224575 117.48037,71.0584575 C117.94837,71.0944575 118.38037,71.1664575 118.81237,71.2024575 C119.28037,71.2024575 119.71237,71.4544575 120.14437,71.4544575 L120.14437,71.3824575 L121.65637,71.3824575 C122.19637,71.3464575 122.66437,71.0944575 123.13237,71.0224575 C123.67237,70.9864575 124.21237,71.1304575 124.64437,71.0944575 C125.22037,70.9864575 125.72437,70.9144575 126.12037,70.8424575 C126.66037,70.6984575 127.02037,70.2304575 127.30837,69.7984575 C127.56037,69.3664575 127.52437,68.8984575 127.41637,68.3584575 L127.41637,68.3584575 Z M148.36837,64.9744575 C148.44037,64.4344575 148.15237,63.8944575 148.22437,63.3904575 C148.29637,62.8504575 148.18837,62.4184575 147.90037,62.0224575 C147.57637,61.6264575 147.25237,61.0144575 146.71237,60.9424575 C146.17237,60.8704575 145.59637,61.2304575 145.20037,61.5184575 C144.80437,61.8424575 144.62437,62.3104575 144.55237,62.8864575 C144.48037,63.2824575 144.40837,63.7144575 144.33637,64.1824575 C144.26437,64.6144575 144.04837,65.0104575 143.97637,65.4424575 C143.86837,65.8744575 144.04837,66.3784575 143.94037,66.7744575 C143.83237,67.2424575 143.61637,67.6384575 143.50837,68.0344575 C143.36437,68.5024575 143.18437,68.9344575 143.04037,69.2944575 C142.78837,69.7984575 142.60837,70.3024575 142.78837,70.7704575 C142.96837,71.2384575 143.43637,71.5264575 143.94037,71.7784575 C144.19237,71.8864575 144.44437,71.8864575 144.69637,71.8864575 C145.09237,71.8864575 145.52437,72.0304575 145.84837,71.8144575 C146.13637,71.6344575 146.49637,71.3464575 146.67637,70.9504575 C146.89237,70.5184575 147.00037,69.9784575 147.18037,69.4744575 C147.32437,69.0064575 147.21637,68.4304575 147.32437,67.9264575 C147.46837,67.4224575 148.04437,67.0264575 148.11637,66.5224575 C148.22437,66.0184575 148.29637,65.4784575 148.36837,64.9744575 L148.36837,64.9744575 Z M165.07237,56.2264575 C165.07237,55.6504575 164.67637,55.1104575 164.31637,54.7504575 C163.95637,54.3904575 163.41637,54.1024575 162.87637,54.1024575 L161.54437,54.1024575 C160.89637,54.1024575 160.89637,54.1384575 160.21237,54.1384575 C159.56437,54.1384575 159.56437,53.9584575 158.88037,53.9584575 C158.23237,53.9584575 158.23237,54.0664575 157.58437,54.0664575 C156.90037,54.0664575 156.50437,54.8584575 156.07237,54.3544575 C155.56837,53.7064575 155.96437,53.4184575 155.96437,52.5904575 C155.96437,51.7624575 156.39637,51.7624575 156.39637,50.9344575 C156.39637,50.1064575 156.18037,50.1064575 156.18037,49.3144575 C156.18037,48.7384575 155.89237,48.3784575 155.53237,48.0184575 C155.17237,47.6584575 154.81237,47.1184575 154.23637,47.1184575 C153.69637,47.1184575 153.22837,47.5504575 152.86837,47.9104575 C152.50837,48.2704575 152.18437,48.7384575 152.18437,49.3144575 C152.18437,50.1064575 152.25637,50.1064575 152.25637,50.9344575 C152.25637,51.7624575 152.18437,51.7624575 152.18437,52.5904575 C152.18437,53.3824575 152.61637,53.4544575 152.11237,54.1024575 C151.64437,54.6064575 151.57237,54.1744575 150.85237,54.1744575 C150.16837,54.1744575 150.16837,54.3904575 149.48437,54.3904575 L148.11637,54.3904575 C147.39637,54.3904575 147.39637,53.9944575 146.71237,53.9944575 C146.02837,53.9944575 146.02837,53.9584575 145.34437,53.9584575 C144.76837,53.9584575 144.33637,54.4984575 143.97637,54.8584575 C143.61637,55.2184575 143.32837,55.6504575 143.32837,56.2264575 C143.32837,56.7664575 143.47237,57.3424575 143.83237,57.7024575 C144.19237,58.0624575 144.76837,58.4944575 145.34437,58.4944575 C146.02837,58.4944575 146.02837,57.9544575 146.71237,57.9544575 C147.39637,57.9544575 147.39637,58.2424575 148.08037,58.2424575 C148.80037,58.2424575 148.80037,58.0264575 149.48437,58.0264575 C150.16837,58.0264575 150.16837,58.0624575 150.85237,58.0624575 C151.57237,58.0624575 151.71637,57.7744575 152.22037,58.2784575 C152.68837,58.7824575 152.29237,58.9264575 152.29237,59.6464575 C152.29237,60.4024575 151.96837,60.4024575 151.96837,61.1224575 C151.96837,61.8424575 152.18437,61.8424575 152.18437,62.5624575 C152.18437,63.2824575 152.29237,63.2824575 152.29237,64.0024575 C152.29237,64.7584575 152.22037,64.7584575 152.22037,65.4784575 C152.22037,66.1984575 152.00437,66.0904575 152.00437,66.9184575 C152.00437,67.3504575 152.18437,67.8904575 152.18437,68.3944575 C152.18437,68.8984575 152.00437,69.4024575 152.00437,69.8344575 C152.00437,70.6624575 152.47237,70.5544575 152.47237,71.2744575 C152.47237,71.8504575 152.32837,72.4984575 152.68837,72.8584575 C153.04837,73.2184575 153.69637,73.3624575 154.23637,73.3624575 C154.81237,73.3624575 155.35237,73.1104575 155.71237,72.7504575 C156.07237,72.3904575 156.43237,71.8504575 156.43237,71.2744575 C156.43237,70.5544575 156.36037,70.5544575 156.36037,69.8344575 C156.36037,69.1144575 156.32437,69.1144575 156.32437,68.3944575 C156.32437,67.6744575 156.03637,67.6744575 156.03637,66.9544575 C156.03637,66.1984575 156.50437,66.1984575 156.50437,65.4784575 C156.50437,64.7584575 156.21637,64.7584575 156.21637,64.0384575 C156.21637,63.3184575 156.39637,63.3184575 156.39637,62.5984575 C156.39637,61.8424575 156.21637,61.8424575 156.21637,61.1224575 C156.21637,60.4024575 156.39637,60.4024575 156.39637,59.6824575 C156.39637,58.9624575 155.82037,58.8184575 156.32437,58.2784575 C156.75637,57.7744575 156.90037,58.0264575 157.58437,58.0264575 C158.23237,58.0264575 158.23237,58.0624575 158.88037,58.0624575 C159.56437,58.0624575 159.56437,58.2064575 160.21237,58.2064575 C160.86037,58.2064575 160.86037,58.1704575 161.54437,58.1704575 C162.19237,58.1704575 162.19237,58.3864575 162.87637,58.3864575 C163.41637,58.3864575 163.77637,57.8464575 164.13637,57.4864575 C164.49637,57.1264575 165.07237,56.7664575 165.07237,56.2264575 L165.07237,56.2264575 Z M166.26037,69.5104575 C166.08037,69.1144575 165.82837,68.6824575 165.64837,68.1784575 C165.50437,67.7464575 165.86437,67.1344575 165.72037,66.6304575 C165.57637,66.1984575 165.25237,65.7664575 165.14437,65.2984575 C165.00037,64.8304575 164.60437,64.4344575 164.49637,63.9664575 C164.38837,63.4984575 164.42437,62.9584575 164.31637,62.4904575 C164.17237,61.9864575 163.84837,61.5904575 163.38037,61.3384575 C162.94837,61.0504575 162.44437,60.9064575 161.90437,61.0504575 C161.36437,61.1944575 160.78837,61.4104575 160.53637,61.8424575 C160.24837,62.3104575 160.42837,62.9224575 160.53637,63.4624575 L160.50037,63.4624575 C160.60837,63.9664575 161.00437,64.3984575 161.11237,64.9024575 C161.25637,65.4064575 160.93237,66.0544575 161.07637,66.5584575 C161.22037,67.0624575 161.79637,67.4584575 161.94037,67.9264575 C162.08437,68.4664575 162.12037,69.0064575 162.30037,69.4744575 C162.48037,69.9784575 162.76837,70.4104575 162.94837,70.8784575 C163.12837,71.2744575 163.09237,71.7064575 163.41637,71.9224575 C163.74037,72.1384575 164.17237,72.4624575 164.56837,72.4624575 C164.82037,72.4624575 165.03637,72.0664575 165.28837,71.9584575 C165.79237,71.7424575 166.00837,71.3824575 166.22437,70.9144575 C166.40437,70.4104575 166.47637,70.0144575 166.26037,69.5104575 L166.26037,69.5104575 Z M187.35637,53.0944575 C187.32037,52.4104575 187.14037,52.4464575 187.14037,51.7624575 C187.10437,51.0784575 187.14037,51.0784575 187.10437,50.3944575 C187.06837,49.8544575 186.85237,49.2424575 186.45637,48.8824575 C186.09637,48.5584575 185.48437,48.4144575 184.94437,48.4504575 C184.36837,48.4504575 183.86437,48.7384575 183.50437,49.0984575 C183.18037,49.4584575 182.78437,49.9984575 182.82037,50.5744575 C182.82037,51.2224575 183.25237,51.2224575 183.28837,51.9064575 C183.32437,52.5544575 183.36037,52.5544575 183.36037,53.2384575 C183.39637,53.9224575 183.39637,53.9224575 183.43237,54.6064575 C183.46837,55.2904575 183.14437,55.2904575 183.18037,55.9744575 C183.21637,56.6584575 182.96437,56.6584575 183.00037,57.3424575 C183.03637,58.0264575 183.54037,57.9904575 183.57637,58.6744575 C183.61237,59.3584575 183.32437,59.3584575 183.36037,60.0424575 C183.39637,60.5824575 183.72037,60.9784575 184.08037,61.3024575 C184.44037,61.6624575 184.83637,62.2384575 185.37637,62.2384575 C185.41237,62.2384575 185.41237,61.9864575 185.44837,61.9864575 C185.98837,61.9864575 186.67237,61.8784575 187.03237,61.4824575 C187.35637,61.1224575 187.28437,60.4384575 187.24837,59.8984575 C187.24837,59.2144575 187.14037,59.2144575 187.10437,58.5304575 C187.10437,57.8824575 186.99637,57.8824575 186.99637,57.1984575 C186.96037,56.5144575 187.03237,56.5144575 186.99637,55.8304575 C186.99637,55.1464575 187.17637,55.1464575 187.14037,54.4624575 C187.10437,53.7784575 187.39237,53.7784575 187.35637,53.0944575 L187.35637,53.0944575 Z M198.51637,50.6824575 C198.51637,50.4304575 198.33637,50.2144575 198.33637,49.9264575 C198.33637,49.3864575 198.19237,48.7024575 197.83237,48.3424575 C197.47237,47.9824575 196.82437,47.9824575 196.24837,47.9824575 C195.70837,47.9824575 195.09637,48.0544575 194.73637,48.4144575 C194.37637,48.7744575 194.26837,49.3864575 194.26837,49.9264575 C194.26837,50.1784575 194.05237,50.4304575 194.05237,50.6824575 C194.05237,51.2224575 194.16037,51.7264575 194.16037,52.1944575 C194.16037,52.7344575 194.48437,53.2384575 194.48437,53.7064575 C194.48437,54.2104575 194.44837,54.7504575 194.44837,55.2184575 C194.44837,55.7224575 194.19637,56.2264575 194.16037,56.7304575 C194.16037,57.2344575 194.12437,57.7384575 194.08837,58.2064575 C194.05237,58.7464575 194.01637,59.2504575 193.98037,59.7184575 C193.90837,60.2584575 193.98037,60.7624575 193.87237,61.2304575 C193.72837,61.7704575 193.22437,62.1304575 193.08037,62.5984575 C192.93637,62.9944575 193.11637,63.6064575 192.90037,64.0384575 C192.68437,64.4344575 192.25237,64.7584575 191.96437,65.1544575 C191.71237,65.5144575 191.31637,65.8384575 190.99237,66.1984575 C190.70437,66.5224575 190.27237,66.7744575 189.94837,67.0984575 C189.58837,67.4224575 189.30037,67.8184575 188.94037,68.1064575 C188.54437,68.3944575 188.14837,68.6464575 187.78837,68.8624575 C187.28437,69.1144575 186.74437,69.5104575 186.60037,70.0144575 C186.45637,70.5184575 186.88837,71.0584575 187.14037,71.5264575 C187.53637,72.1744575 188.07637,72.6424575 188.76037,72.6424575 C189.08437,72.6424575 189.33637,72.3904575 189.62437,72.2464575 C190.05637,71.9944575 190.66837,72.1024575 191.06437,71.8144575 C191.46037,71.5624575 191.74837,71.1664575 192.14437,70.8424575 C192.50437,70.5544575 192.90037,70.3024575 193.26037,69.9424575 C193.58437,69.6184575 193.87237,69.2224575 194.19637,68.8624575 C194.52037,68.5024575 194.66437,68.0344575 194.95237,67.6384575 C195.24037,67.2424575 195.45637,66.8464575 195.70837,66.4504575 C195.96037,66.0184575 196.28437,65.6944575 196.50037,65.2624575 C196.71637,64.8304575 196.75237,64.3264575 196.93237,63.8944575 C197.07637,63.4264575 197.22037,62.9584575 197.32837,62.4544575 C197.43637,61.9864575 197.58037,61.5184575 197.65237,61.0504575 C197.76037,60.5464575 197.83237,60.0784575 197.90437,59.5744575 C197.94037,59.1064575 198.15637,58.6024575 198.19237,58.0984575 C198.22837,57.6304575 198.26437,57.1264575 198.30037,56.6224575 C198.30037,56.1544575 198.48037,55.6504575 198.48037,55.1464575 C198.48037,54.6784575 198.30037,54.1744575 198.30037,53.6704575 C198.33637,53.1664575 198.26437,52.6984575 198.26437,52.1944575 C198.26437,51.6904575 198.51637,51.1864575 198.51637,50.6824575 L198.51637,50.6824575 Z M222.56437,64.5784575 C222.78037,64.1464575 222.67237,63.6424575 222.52837,63.1384575 C222.38437,62.7424575 222.42037,62.2024575 222.27637,61.6984575 C222.16837,61.2664575 222.27637,60.7624575 222.20437,60.2584575 C222.09637,59.7904575 221.91637,59.3584575 221.84437,58.8544575 C221.73637,58.3864575 221.77237,57.9184575 221.70037,57.4504575 C221.62837,56.9464575 221.30437,56.5144575 221.26837,56.0464575 C221.19637,55.5064575 221.01637,54.9664575 220.62037,54.6424575 C220.26037,54.3544575 219.64837,54.3184575 219.14437,54.3904575 C218.60437,54.4264575 218.24437,54.7864575 217.95637,55.1824575 C217.66837,55.5424575 217.45237,55.9744575 217.52437,56.4784575 L217.30837,56.5144575 C217.38037,57.0184575 217.66837,57.5224575 217.74037,58.0264575 C217.84837,58.5664575 218.02837,59.0344575 218.13637,59.5744575 C218.24437,60.0784575 217.99237,60.6904575 218.10037,61.1944575 C218.20837,61.6984575 218.31637,62.2384575 218.42437,62.7064575 C218.56837,63.2464575 218.60437,63.8224575 218.71237,64.2904575 C218.85637,64.6864575 219.43237,64.8664575 219.75637,65.0824575 C220.08037,65.3344575 220.40437,65.6944575 220.83637,65.6944575 C221.01637,65.6944575 221.23237,65.6944575 221.41237,65.6224575 C221.91637,65.4784575 222.31237,65.0104575 222.56437,64.5784575 L222.56437,64.5784575 Z M235.59637,57.7024575 C235.38037,57.2344575 235.09237,56.8384575 234.58837,56.6584575 C234.12037,56.4784575 233.65237,56.5864575 233.18437,56.8024575 C232.75237,56.9824575 232.17637,57.1984575 231.99637,57.7024575 C231.81637,58.1704575 231.60037,58.6024575 231.42037,59.0704575 C231.24037,59.5384575 231.16837,60.0424575 230.98837,60.5104575 C230.77237,60.9784575 230.66437,61.4464575 230.48437,61.9144575 C230.26837,62.3824575 229.80037,62.7064575 229.62037,63.1744575 C229.40437,63.6064575 229.26037,64.0744575 229.04437,64.5424575 C228.82837,64.9744575 228.97237,65.6224575 228.72037,66.0544575 C228.50437,66.4864575 228.28837,66.9544575 228.03637,67.3864575 C227.82037,67.8184575 227.28037,68.1064575 227.06437,68.5384575 C226.81237,68.9704575 226.84837,69.5824575 226.59637,70.0144575 C226.38037,70.4464575 225.91237,70.7704575 225.66037,71.1664575 C225.37237,71.6344575 225.48037,72.1384575 225.58837,72.6064575 C225.69637,73.1104575 225.84037,73.6144575 226.27237,73.9024575 C226.59637,74.0824575 226.99237,73.9744575 227.31637,73.9744575 C227.96437,73.9744575 228.82837,73.9384575 229.18837,73.3264575 C229.44037,72.9304575 229.18837,72.2464575 229.44037,71.8144575 C229.69237,71.4184575 229.90837,71.0224575 230.16037,70.6264575 C230.37637,70.1944575 230.66437,69.8344575 230.91637,69.4024575 C231.13237,68.9704575 231.42037,68.6104575 231.63637,68.1784575 C231.85237,67.7824575 232.35637,67.4944575 232.57237,67.0624575 C232.75237,66.6304575 232.93237,66.1984575 233.11237,65.7664575 C233.32837,65.3344575 233.32837,64.7944575 233.50837,64.3624575 C233.68837,63.9304575 234.12037,63.6064575 234.30037,63.1744575 C234.51637,62.7424575 234.48037,62.2024575 234.66037,61.7704575 C234.84037,61.3384575 234.98437,60.9064575 235.16437,60.4384575 C235.34437,60.0064575 235.38037,59.5384575 235.56037,59.0704575 C235.74037,58.6024575 235.77637,58.1344575 235.59637,57.7024575 L235.59637,57.7024575 Z M228.00037,61.6264575 C227.92837,61.1584575 227.96437,60.5824575 227.89237,60.0424575 C227.78437,59.5384575 227.56837,59.0344575 227.49637,58.4944575 C227.42437,57.9544575 227.64037,57.3784575 227.56837,56.8744575 C227.49637,56.3344575 227.49637,55.7944575 227.42437,55.2904575 C227.35237,54.7504575 226.88437,54.3184575 226.48837,54.0304575 C226.09237,53.7424575 225.62437,53.7784575 225.08437,53.8864575 C224.58037,53.9584575 223.93237,53.9224575 223.64437,54.3184575 C223.32037,54.7144575 223.64437,55.3264575 223.71637,55.8304575 C223.78837,56.2264575 223.35637,56.7304575 223.42837,57.1984575 C223.46437,57.6304575 223.64437,58.0264575 223.68037,58.4944575 C223.75237,58.9264575 224.18437,59.2864575 224.22037,59.7184575 C224.29237,60.1504575 224.04037,60.6544575 224.11237,61.0864575 C224.18437,61.5184575 224.25637,61.9504575 224.32837,62.3824575 C224.43637,62.8144575 224.61637,63.3904575 224.94037,63.6784575 C225.30037,63.9304575 225.87637,63.8944575 226.34437,63.8944575 C226.45237,63.8944575 226.56037,63.7144575 226.66837,63.7144575 C227.20837,63.6064575 227.46037,63.3544575 227.74837,62.9584575 C228.00037,62.5264575 228.10837,62.2024575 228.00037,61.6624575 L228.00037,61.6264575 Z M271.92037,51.6904575 C271.95637,51.1144575 271.34437,50.6824575 270.94837,50.2864575 C270.55237,49.8544575 270.15637,49.2424575 269.58037,49.2784575 C268.82437,49.3144575 268.82437,49.6384575 268.06837,49.6744575 C267.34837,49.7104575 267.31237,49.4584575 266.59237,49.4944575 C265.83637,49.5304575 265.80037,49.4224575 265.08037,49.4584575 C264.32437,49.4944575 264.32437,49.9984575 263.56837,50.0344575 C262.81237,50.0344575 262.81237,49.6744575 262.05637,49.7104575 C262.05637,49.6744575 262.12837,49.7464575 262.16437,49.7104575 C262.27237,49.1704575 262.02037,48.6664575 261.76837,48.2344575 C261.48037,47.8024575 261.19237,47.1904575 260.65237,47.0464575 C260.11237,46.9384575 259.39237,47.0824575 258.96037,47.3344575 C258.52837,47.6224575 258.49237,48.3064575 258.38437,48.8464575 L258.24037,48.8104575 C258.16837,49.2424575 258.20437,49.7464575 258.06037,50.1784575 C257.95237,50.6104575 257.34037,50.8984575 257.19637,51.3304575 C257.05237,51.7624575 257.30437,52.3384575 257.16037,52.7704575 C256.98037,53.2024575 256.76437,53.5984575 256.58437,54.0304575 C256.40437,54.4264575 256.33237,54.9304575 256.15237,55.3264575 C255.93637,55.7584575 255.61237,56.0824575 255.39637,56.4784575 C255.18037,56.9104575 254.67637,57.1264575 254.46037,57.5224575 C254.20837,57.9184575 253.95637,58.3144575 253.74037,58.6384575 C253.41637,59.1064575 253.63237,59.7904575 253.70437,60.2944575 C253.81237,60.7624575 254.10037,61.1584575 254.56837,61.4464575 C254.89237,61.6984575 255.21637,62.0584575 255.61237,62.0584575 C256.26037,62.0584575 257.05237,61.7344575 257.44837,61.1584575 C257.66437,60.7984575 257.66437,60.2584575 257.91637,59.8624575 C258.13237,59.5024575 258.20437,59.0344575 258.42037,58.6384575 C258.63637,58.2424575 259.06837,57.9544575 259.24837,57.5584575 C259.46437,57.1624575 259.68037,56.7664575 259.86037,56.3704575 C260.04037,55.9744575 260.22037,55.5424575 260.40037,55.1464575 C260.58037,54.7144575 260.58037,54.0664575 260.76037,53.6344575 C261.37237,53.4544575 261.48037,54.0304575 262.16437,53.9944575 C262.81237,53.9584575 262.81237,53.8864575 263.46037,53.8504575 C264.10837,53.8504575 264.14437,54.0304575 264.79237,53.9944575 C265.44037,53.9584575 265.44037,53.7424575 266.08837,53.7424575 C266.77237,53.7064575 266.88037,53.2024575 267.49237,53.4184575 C267.42037,53.9224575 267.34837,54.6064575 267.24037,55.0744575 C267.16837,55.5784575 267.24037,56.1184575 267.13237,56.5864575 C267.02437,57.0904575 266.59237,57.4864575 266.48437,57.9904575 C266.37637,58.4584575 266.52037,59.0344575 266.41237,59.5024575 C266.26837,59.9704575 266.16037,60.4744575 266.01637,60.9424575 C265.87237,61.4104575 265.51237,61.8424575 265.33237,62.3104575 C265.18837,62.7784575 264.82837,63.1744575 264.64837,63.6064575 C264.46837,64.0744575 264.14437,64.4704575 263.92837,64.9384575 C263.74837,65.3704575 263.49637,65.8024575 263.28037,66.2704575 C263.06437,66.7024575 263.28037,67.3864575 263.06437,67.8184575 C262.81237,68.2504575 262.59637,68.7184575 262.34437,69.1504575 C262.09237,69.5824575 261.73237,69.9424575 261.44437,70.3384575 C261.15637,70.8064575 260.83237,71.3104575 260.94037,71.8144575 C261.08437,72.3184575 261.58837,72.5704575 262.05637,72.8584575 C262.38037,73.0744575 262.63237,73.6144575 262.99237,73.6144575 C263.67637,73.6144575 264.18037,72.9304575 264.57637,72.3184575 C264.82837,71.8864575 265.15237,71.5264575 265.40437,71.1304575 C265.65637,70.6984575 265.76437,70.1944575 265.98037,69.7624575 C266.23237,69.3304575 266.48437,68.8984575 266.70037,68.4664575 C266.91637,68.0344575 267.56437,67.8184575 267.74437,67.3504575 C267.96037,66.9184575 267.88837,66.3424575 268.06837,65.8744575 C268.28437,65.4424575 268.35637,64.9384575 268.53637,64.5064575 C268.71637,64.0384575 269.22037,63.7144575 269.40037,63.2464575 C269.54437,62.7784575 269.40037,62.2024575 269.58037,61.7344575 C269.72437,61.2664575 269.86837,60.7984575 270.01237,60.3304575 C270.15637,59.8624575 270.19237,59.3944575 270.30037,58.8904575 C270.44437,58.4224575 270.94837,58.0624575 271.05637,57.5584575 C271.16437,57.0904575 270.80437,56.5144575 270.91237,56.0104575 C270.98437,55.5424575 271.09237,55.0744575 271.16437,54.5704575 C271.23637,54.1024575 271.70437,53.6704575 271.77637,53.1664575 C271.81237,52.6984575 271.88437,52.1944575 271.92037,51.6904575 L271.92037,51.6904575 Z" id="きょうとホリック" fill="#4A4A4A"></path>
                <path d="M140.055444,16.7101137 L136.786175,18.4699638 C135.815009,18.9927437 135.001156,18.5247674 134.968255,17.420387 L134.857696,13.709192 L131.698986,11.7578471 C130.760662,11.1781818 130.759015,10.2393763 131.698986,9.65869352 L134.857696,7.70734861 L134.968255,3.99615358 C135.001098,2.8937084 135.813304,2.42287921 136.786175,2.9465768 L140.055444,4.70642692 L143.324713,2.9465768 C144.29588,2.42379687 145.109733,2.89177322 145.142634,3.99615358 L145.253193,7.70734861 L148.411903,9.65869352 C149.350227,10.2383588 149.351874,11.1771643 148.411903,11.7578471 L145.253193,13.709192 L145.142634,17.420387 C145.109791,18.5228322 144.297585,18.9936614 143.324713,18.4699638 L140.055444,16.7101137 Z" id="Star-1" fill="#84E3F1" transform="translate(140.055444, 10.708270) rotate(16.000000) translate(-140.055444, -10.708270) "></path>
                <path d="M71.686,106.988 C71.608,106.624 71.53,106.13 71.218,105.922 C70.958,105.74 70.464,105.818 70.178,105.584 C69.944,105.376 69.814,104.986 69.58,104.726 C69.346,104.492 69.268,104.128 69.034,103.842 C68.826,103.608 68.618,103.348 68.41,103.062 C68.202,102.802 67.942,102.698 67.76,102.412 C68.046,102.022 68.098,102.126 68.488,101.866 C68.904,101.606 68.774,101.424 69.164,101.164 C69.58,100.904 69.71,101.164 70.126,100.904 C70.516,100.644 70.464,100.566 70.854,100.306 C71.192,100.098 71.244,99.734 71.348,99.396 C71.426,99.032 71.53,98.668 71.322,98.33 C71.114,97.992 70.776,97.81 70.412,97.732 C70.048,97.654 69.606,97.576 69.268,97.81 C68.852,98.07 68.93,98.2 68.488,98.486 C68.046,98.746 67.916,98.564 67.474,98.85 C67.058,99.11 67.24,99.422 66.798,99.682 C66.356,99.968 66.278,99.838 65.836,100.098 C65.394,100.384 65.342,100.306 64.926,100.592 C64.484,100.852 64.432,101.606 63.99,101.346 C63.522,101.06 63.938,100.67 63.938,100.124 C63.938,99.578 64.25,99.578 64.25,99.032 C64.25,98.486 64.224,98.486 64.224,97.966 C64.224,97.42 63.86,97.42 63.86,96.874 C63.86,96.328 64.25,96.328 64.25,95.782 L64.25,94.716 C64.25,94.3 63.86,93.988 63.6,93.728 C63.34,93.468 63.028,93.286 62.638,93.286 C62.222,93.286 61.962,93.52 61.702,93.78 C61.442,94.04 61.364,94.3 61.364,94.716 C61.364,95.236 61.104,95.236 61.104,95.756 C61.104,96.276 61.234,96.276 61.234,96.822 C61.234,97.342 61.364,97.342 61.364,97.862 C61.364,98.382 61.182,98.382 61.182,98.928 C61.182,99.448 61.364,99.448 61.364,99.968 C61.364,100.488 61.182,100.488 61.182,101.034 C61.182,101.554 61.312,101.554 61.312,102.074 C61.312,102.594 61.026,102.594 61.026,103.14 C61.026,103.66 61.104,103.66 61.104,104.18 C61.104,104.726 61.078,104.726 61.078,105.246 C61.078,105.766 61.182,105.766 61.182,106.312 C61.182,106.832 61,106.832 61,107.352 C61,107.768 61.234,108.236 61.494,108.496 C61.754,108.756 62.222,108.938 62.638,108.938 C63.028,108.938 63.34,108.6 63.6,108.34 C63.86,108.08 64.276,107.768 64.276,107.352 C64.276,106.91 64.146,106.91 64.146,106.442 C64.146,105.974 64.276,105.974 64.276,105.506 C64.276,105.038 64.042,105.038 64.068,104.596 C64.094,104.57 64.276,104.726 64.302,104.674 C64.822,104.362 64.614,103.92 65.212,103.764 C65.394,104.05 65.524,104.518 65.732,104.804 C65.94,105.09 66.33,105.22 66.538,105.48 C66.772,105.766 66.824,106.182 67.058,106.416 C67.292,106.676 67.578,106.91 67.838,107.118 C68.098,107.378 68.358,107.612 68.618,107.82 C68.904,108.054 69.164,108.262 69.424,108.444 C69.684,108.626 69.996,108.6 70.282,108.6 C70.724,108.6 71.218,108.496 71.504,108.106 C71.738,107.768 71.738,107.352 71.686,106.988 L71.686,106.988 Z M89.86,99.76 C89.73,99.422 89.236,99.318 88.872,99.162 C88.508,98.98 88.196,98.746 87.832,98.85 C87.494,98.98 87.13,99.24 86.948,99.604 C86.714,100.072 86.974,100.176 86.74,100.644 C86.532,101.086 86.35,101.008 86.116,101.45 C85.908,101.918 86.09,101.996 85.882,102.464 C85.648,102.906 85.596,102.828 85.336,103.322 C85.206,103.608 84.816,103.842 84.686,104.128 C84.426,104.622 84.868,105.246 84.452,104.96 C83.984,104.648 83.958,104.7 83.672,104.232 C83.386,103.79 83.542,103.686 83.256,103.218 C82.996,102.776 83.126,102.672 82.84,102.23 C82.58,101.762 82.398,101.866 82.112,101.398 C81.826,100.93 81.826,100.956 81.54,100.488 C81.254,100.02 81.15,100.098 80.864,99.63 C80.656,99.292 80.422,99.162 80.058,99.058 C79.72,98.98 79.304,98.746 78.966,98.954 C78.602,99.162 78.316,99.552 78.238,99.916 C78.16,100.28 78.316,100.722 78.524,101.06 C78.784,101.502 78.732,101.528 79.018,101.97 C79.278,102.412 79.174,102.464 79.434,102.932 C79.72,103.374 79.954,103.218 80.214,103.66 C80.5,104.102 80.5,104.102 80.76,104.544 C81.046,104.986 80.786,105.142 81.072,105.584 C81.332,106.026 81.384,106 81.644,106.442 C81.93,106.91 82.008,106.832 82.294,107.274 C82.554,107.742 82.736,107.638 82.71,108.158 C82.684,108.886 82.476,108.808 82.138,109.458 C82.138,109.51 82.32,109.614 82.32,109.64 C82.112,110.082 81.774,110.368 81.462,110.55 C81.15,110.732 80.734,110.758 80.266,110.784 C80.162,110.784 80.058,110.888 79.954,110.888 C79.564,110.836 79.07,110.706 78.784,110.94 C78.498,111.174 78.342,111.642 78.316,112.032 C78.264,112.448 78.368,112.916 78.602,113.202 C78.836,113.488 79.304,113.488 79.72,113.514 C79.902,113.54 80.084,113.514 80.266,113.514 C80.292,113.514 80.344,113.592 80.37,113.592 C80.734,113.592 81.098,113.54 81.488,113.462 C81.852,113.358 82.294,113.436 82.632,113.254 C82.97,113.098 83.204,112.76 83.516,112.526 C83.802,112.292 84.01,111.98 84.244,111.668 C84.452,111.356 84.842,111.122 84.998,110.784 C85.206,110.29 85.128,110.238 85.362,109.744 C85.596,109.276 85.362,109.146 85.596,108.652 C85.856,108.184 86.116,108.314 86.35,107.82 C86.584,107.326 86.636,107.352 86.87,106.858 C87.104,106.364 86.792,106.208 87.026,105.74 C87.286,105.246 87.546,105.376 87.78,104.882 C88.014,104.388 87.832,104.31 88.092,103.816 C88.326,103.322 88.404,103.374 88.638,102.88 C88.872,102.386 88.794,102.334 89.054,101.866 C89.288,101.372 89.522,101.476 89.756,100.982 C89.938,100.644 89.964,100.098 89.86,99.76 L89.86,99.76 Z M105.356,103.296 C105.356,103.946 105.148,104.726 104.992,104.908 C104.81,105.116 104.498,105.298 104.212,105.48 C103.978,105.61 103.666,105.636 103.328,105.74 C103.068,105.792 102.756,105.818 102.418,105.818 C102.028,105.818 101.716,105.896 101.43,105.844 C101.066,105.792 100.858,105.48 100.624,105.35 C100.364,105.168 99.922,105.194 99.74,104.882 C99.584,104.648 99.61,104.31 99.532,104.076 C99.454,103.816 99.376,103.556 99.376,103.296 C99.376,102.984 99.454,102.672 99.584,102.36 C99.688,102.1 99.818,101.814 100.026,101.528 C100.234,101.294 100.702,101.242 101.144,101.086 C101.534,100.93 101.898,100.514 102.288,100.514 C102.6,100.514 102.86,100.826 103.12,100.878 C103.406,100.93 103.744,100.826 104.004,100.982 C104.238,101.112 104.446,101.32 104.68,101.554 C104.862,101.684 104.888,102.048 104.992,102.412 C105.07,102.672 105.356,102.958 105.356,103.296 L105.356,103.296 Z M108.294,103.296 C108.294,102.932 107.956,102.62 107.904,102.256 C107.852,101.918 107.852,101.58 107.748,101.242 C107.618,100.904 107.514,100.592 107.306,100.28 C107.124,99.994 106.89,99.76 106.63,99.5 C106.396,99.266 106.11,99.136 105.85,98.954 C105.564,98.772 105.408,98.434 105.122,98.304 C104.81,98.148 104.446,98.226 104.134,98.148 C103.822,98.07 103.536,97.914 103.224,97.862 C102.886,97.836 102.574,97.862 102.262,97.862 L102.262,97.888 C101.95,97.888 101.612,97.758 101.274,97.81 C100.936,97.862 100.624,97.94 100.286,98.044 C99.974,98.148 99.766,98.486 99.48,98.642 C99.168,98.798 98.752,98.72 98.492,98.928 C98.232,99.136 97.972,99.396 97.764,99.656 C97.556,99.89 97.27,100.15 97.114,100.41 C96.958,100.696 97.088,101.112 96.958,101.424 C96.854,101.736 96.49,101.97 96.438,102.282 C96.36,102.62 96.49,102.958 96.49,103.296 C96.49,103.66 96.568,103.998 96.646,104.362 C96.724,104.7 96.724,105.09 96.854,105.428 C96.984,105.766 97.27,106.026 97.478,106.338 C97.66,106.65 97.972,106.884 98.232,107.144 C98.492,107.404 98.674,107.794 98.986,107.976 C99.298,108.158 99.714,108.184 100.078,108.314 C100.416,108.418 100.728,108.756 101.092,108.834 C101.456,108.886 101.872,108.938 102.262,108.938 C102.314,108.938 102.366,108.652 102.418,108.652 C102.782,108.652 103.12,108.652 103.458,108.6 C103.848,108.522 104.212,108.548 104.524,108.444 C104.888,108.314 105.2,108.132 105.512,107.95 C105.824,107.768 106.162,107.612 106.422,107.378 C106.708,107.144 106.786,106.728 106.994,106.468 C107.228,106.156 107.618,105.948 107.748,105.584 C107.904,105.22 107.748,104.778 107.8,104.414 C107.878,104.024 108.294,103.686 108.294,103.296 L108.294,103.296 Z M123.114,99.994 C123.114,99.578 122.776,99.266 122.516,99.006 C122.256,98.746 121.918,98.538 121.528,98.538 C121.086,98.538 121.086,98.72 120.644,98.72 C120.202,98.72 120.124,98.824 119.89,98.46 C119.526,97.888 119.708,97.862 119.708,97.186 C119.708,96.796 119.63,96.406 119.37,96.146 C119.11,95.886 118.72,95.73 118.304,95.73 C117.914,95.73 117.576,95.938 117.316,96.198 C117.056,96.458 116.77,96.796 116.77,97.186 C116.77,97.862 117.03,97.888 116.796,98.512 C116.718,98.746 116.64,98.616 116.406,98.616 C116.016,98.616 115.626,98.668 115.366,98.928 C115.106,99.188 114.794,99.578 114.794,99.994 C114.794,100.384 115.028,100.852 115.288,101.112 C115.548,101.372 116.016,101.476 116.406,101.476 C116.64,101.476 116.874,101.164 116.978,101.372 C117.186,101.762 116.952,101.866 116.952,102.308 C116.952,102.75 117.056,102.75 117.056,103.192 C117.056,103.634 116.926,103.634 116.926,104.076 C116.926,104.414 116.978,104.726 117.03,105.038 C117.082,105.35 117.056,105.688 117.16,105.974 C117.264,106.312 117.42,106.572 117.576,106.858 C117.758,107.144 117.992,107.326 118.226,107.56 C118.486,107.846 118.72,108.106 119.058,108.288 C119.37,108.496 119.708,108.626 120.072,108.704 C120.462,108.808 120.826,108.964 121.19,108.964 L121.216,108.834 C121.606,108.834 122.022,108.808 122.282,108.548 C122.542,108.288 122.802,107.872 122.802,107.482 C122.802,107.092 122.542,106.676 122.282,106.416 C122.022,106.156 121.606,105.922 121.216,105.922 C120.748,105.922 120.462,105.896 120.228,105.662 C120.072,105.506 119.864,105.298 119.76,104.934 C119.708,104.726 119.708,104.414 119.708,104.076 C119.708,103.634 119.864,103.634 119.864,103.192 C119.864,102.75 119.578,102.75 119.578,102.308 C119.578,101.866 119.422,101.71 119.734,101.398 C120.046,101.086 120.202,101.398 120.644,101.45 C121.086,101.528 121.086,101.606 121.528,101.606 C121.918,101.606 122.204,101.19 122.464,100.93 C122.724,100.67 123.114,100.384 123.114,99.994 L123.114,99.994 Z M138.558,103.296 C138.558,103.946 138.35,104.726 138.194,104.908 C138.012,105.116 137.7,105.298 137.414,105.48 C137.18,105.61 136.868,105.636 136.53,105.74 C136.27,105.792 135.958,105.818 135.62,105.818 C135.23,105.818 134.918,105.896 134.632,105.844 C134.268,105.792 134.06,105.48 133.826,105.35 C133.566,105.168 133.124,105.194 132.942,104.882 C132.786,104.648 132.812,104.31 132.734,104.076 C132.656,103.816 132.578,103.556 132.578,103.296 C132.578,102.984 132.656,102.672 132.786,102.36 C132.89,102.1 133.02,101.814 133.228,101.528 C133.436,101.294 133.904,101.242 134.346,101.086 C134.736,100.93 135.1,100.514 135.49,100.514 C135.802,100.514 136.062,100.826 136.322,100.878 C136.608,100.93 136.946,100.826 137.206,100.982 C137.44,101.112 137.648,101.32 137.882,101.554 C138.064,101.684 138.09,102.048 138.194,102.412 C138.272,102.672 138.558,102.958 138.558,103.296 L138.558,103.296 Z M141.496,103.296 C141.496,102.932 141.158,102.62 141.106,102.256 C141.054,101.918 141.054,101.58 140.95,101.242 C140.82,100.904 140.716,100.592 140.508,100.28 C140.326,99.994 140.092,99.76 139.832,99.5 C139.598,99.266 139.312,99.136 139.052,98.954 C138.766,98.772 138.61,98.434 138.324,98.304 C138.012,98.148 137.648,98.226 137.336,98.148 C137.024,98.07 136.738,97.914 136.426,97.862 C136.088,97.836 135.776,97.862 135.464,97.862 L135.464,97.888 C135.152,97.888 134.814,97.758 134.476,97.81 C134.138,97.862 133.826,97.94 133.488,98.044 C133.176,98.148 132.968,98.486 132.682,98.642 C132.37,98.798 131.954,98.72 131.694,98.928 C131.434,99.136 131.174,99.396 130.966,99.656 C130.758,99.89 130.472,100.15 130.316,100.41 C130.16,100.696 130.29,101.112 130.16,101.424 C130.056,101.736 129.692,101.97 129.64,102.282 C129.562,102.62 129.692,102.958 129.692,103.296 C129.692,103.66 129.77,103.998 129.848,104.362 C129.926,104.7 129.926,105.09 130.056,105.428 C130.186,105.766 130.472,106.026 130.68,106.338 C130.862,106.65 131.174,106.884 131.434,107.144 C131.694,107.404 131.876,107.794 132.188,107.976 C132.5,108.158 132.916,108.184 133.28,108.314 C133.618,108.418 133.93,108.756 134.294,108.834 C134.658,108.886 135.074,108.938 135.464,108.938 C135.516,108.938 135.568,108.652 135.62,108.652 C135.984,108.652 136.322,108.652 136.66,108.6 C137.05,108.522 137.414,108.548 137.726,108.444 C138.09,108.314 138.402,108.132 138.714,107.95 C139.026,107.768 139.364,107.612 139.624,107.378 C139.91,107.144 139.988,106.728 140.196,106.468 C140.43,106.156 140.82,105.948 140.95,105.584 C141.106,105.22 140.95,104.778 141.002,104.414 C141.08,104.024 141.496,103.686 141.496,103.296 L141.496,103.296 Z M158.526,107.326 C158.526,107.326 158.292,106.91 158.292,106.26 C158.292,105.948 158.422,105.584 158.422,105.194 L158.422,104.128 C158.422,103.79 158.214,103.426 158.214,103.062 C158.214,102.724 158.136,102.438 158.084,102.126 C158.032,101.788 158.006,101.502 157.902,101.19 C157.798,100.878 157.72,100.566 157.564,100.28 C157.408,99.994 157.33,99.656 157.122,99.422 C156.888,99.162 156.602,98.954 156.342,98.746 C156.056,98.564 155.796,98.304 155.484,98.174 C155.172,98.044 154.782,98.122 154.444,98.07 C154.106,98.018 153.794,97.758 153.43,97.758 C153.014,97.758 152.624,98.018 152.234,98.096 C151.818,98.174 151.246,98.278 150.882,98.434 C150.674,98.018 150.908,97.914 150.908,97.446 C150.908,96.978 151.064,96.978 151.064,96.51 C151.064,96.068 150.856,96.068 150.856,95.6 C150.856,95.132 151.09,95.132 151.09,94.664 C151.09,94.274 150.96,93.832 150.7,93.572 C150.44,93.312 149.998,93.208 149.608,93.208 C149.218,93.208 148.776,93.338 148.516,93.598 C148.256,93.858 148.282,94.274 148.282,94.664 C148.282,95.21 148.1,95.21 148.1,95.73 C148.1,96.25 148.178,96.25 148.178,96.77 C148.178,97.316 147.996,97.316 147.996,97.836 C147.996,98.356 148.334,98.252 148.334,98.876 C148.334,99.188 148.152,99.552 148.152,99.942 C148.152,100.28 148.1,100.618 148.1,100.982 C148.1,101.346 148.074,101.684 148.074,102.048 C148.074,102.412 148.048,102.75 148.048,103.114 C148.048,103.452 148.204,103.816 148.204,104.154 C148.204,104.544 148.256,104.882 148.256,105.22 C148.256,105.61 148.074,105.974 148.074,106.286 C148.074,106.91 148.23,106.806 148.23,107.326 C148.23,107.716 148.204,108.21 148.464,108.47 C148.724,108.73 149.218,108.938 149.608,108.938 C149.998,108.938 150.388,108.626 150.648,108.366 C150.908,108.106 151.194,107.716 151.194,107.326 C151.194,106.806 151.22,106.806 151.22,106.26 C151.22,105.74 151.168,105.74 151.168,105.194 C151.168,104.674 150.856,104.674 150.856,104.128 C150.856,103.608 151.142,103.608 151.142,103.062 C151.142,103.01 150.96,102.958 150.96,102.88 C150.96,102.568 150.934,102.256 151.012,102.022 C151.116,101.736 151.558,101.684 151.74,101.502 C151.948,101.294 152.104,101.06 152.494,100.956 C152.754,100.878 153.04,100.93 153.43,100.93 C153.768,100.93 154.054,100.774 154.262,100.852 C154.548,100.956 154.756,101.164 154.938,101.346 C155.12,101.554 155.406,101.788 155.51,102.126 C155.562,102.386 155.302,102.724 155.302,103.062 C155.302,103.426 155.458,103.79 155.458,104.128 C155.458,104.492 155.302,104.856 155.302,105.194 C155.302,105.584 155.458,105.948 155.458,106.26 C155.458,106.91 155.536,107.326 155.536,107.326 C155.536,107.742 155.744,107.976 156.004,108.236 C156.264,108.496 156.498,108.912 156.914,108.912 C157.304,108.912 157.668,108.626 157.928,108.366 C158.214,108.106 158.526,107.742 158.526,107.326 L158.526,107.326 Z M173.97,103.296 C173.97,103.946 173.762,104.726 173.606,104.908 C173.424,105.116 173.112,105.298 172.826,105.48 C172.592,105.61 172.28,105.636 171.942,105.74 C171.682,105.792 171.37,105.818 171.032,105.818 C170.642,105.818 170.33,105.896 170.044,105.844 C169.68,105.792 169.472,105.48 169.238,105.35 C168.978,105.168 168.536,105.194 168.354,104.882 C168.198,104.648 168.224,104.31 168.146,104.076 C168.068,103.816 167.99,103.556 167.99,103.296 C167.99,102.984 168.068,102.672 168.198,102.36 C168.302,102.1 168.432,101.814 168.64,101.528 C168.848,101.294 169.316,101.242 169.758,101.086 C170.148,100.93 170.512,100.514 170.902,100.514 C171.214,100.514 171.474,100.826 171.734,100.878 C172.02,100.93 172.358,100.826 172.618,100.982 C172.852,101.112 173.06,101.32 173.294,101.554 C173.476,101.684 173.502,102.048 173.606,102.412 C173.684,102.672 173.97,102.958 173.97,103.296 L173.97,103.296 Z M176.908,103.296 C176.908,102.932 176.57,102.62 176.518,102.256 C176.466,101.918 176.466,101.58 176.362,101.242 C176.232,100.904 176.128,100.592 175.92,100.28 C175.738,99.994 175.504,99.76 175.244,99.5 C175.01,99.266 174.724,99.136 174.464,98.954 C174.178,98.772 174.022,98.434 173.736,98.304 C173.424,98.148 173.06,98.226 172.748,98.148 C172.436,98.07 172.15,97.914 171.838,97.862 C171.5,97.836 171.188,97.862 170.876,97.862 L170.876,97.888 C170.564,97.888 170.226,97.758 169.888,97.81 C169.55,97.862 169.238,97.94 168.9,98.044 C168.588,98.148 168.38,98.486 168.094,98.642 C167.782,98.798 167.366,98.72 167.106,98.928 C166.846,99.136 166.586,99.396 166.378,99.656 C166.17,99.89 165.884,100.15 165.728,100.41 C165.572,100.696 165.702,101.112 165.572,101.424 C165.468,101.736 165.104,101.97 165.052,102.282 C164.974,102.62 165.104,102.958 165.104,103.296 C165.104,103.66 165.182,103.998 165.26,104.362 C165.338,104.7 165.338,105.09 165.468,105.428 C165.598,105.766 165.884,106.026 166.092,106.338 C166.274,106.65 166.586,106.884 166.846,107.144 C167.106,107.404 167.288,107.794 167.6,107.976 C167.912,108.158 168.328,108.184 168.692,108.314 C169.03,108.418 169.342,108.756 169.706,108.834 C170.07,108.886 170.486,108.938 170.876,108.938 C170.928,108.938 170.98,108.652 171.032,108.652 C171.396,108.652 171.734,108.652 172.072,108.6 C172.462,108.522 172.826,108.548 173.138,108.444 C173.502,108.314 173.814,108.132 174.126,107.95 C174.438,107.768 174.776,107.612 175.036,107.378 C175.322,107.144 175.4,106.728 175.608,106.468 C175.842,106.156 176.232,105.948 176.362,105.584 C176.518,105.22 176.362,104.778 176.414,104.414 C176.492,104.024 176.908,103.686 176.908,103.296 L176.908,103.296 Z M186.632,95.574 C186.632,95.054 186.606,95.054 186.606,94.508 C186.606,94.118 186.216,93.884 185.956,93.624 C185.696,93.364 185.436,93 185.046,93 C184.656,93 184.396,93.338 184.136,93.598 C183.876,93.858 183.564,94.118 183.564,94.508 C183.564,95.028 183.668,95.028 183.668,95.574 C183.668,96.094 183.408,96.094 183.408,96.614 C183.408,97.134 183.668,97.134 183.668,97.68 C183.668,98.2 183.616,98.2 183.616,98.72 C183.616,99.24 183.538,99.24 183.538,99.786 C183.538,100.306 183.694,100.306 183.694,100.826 C183.694,101.346 183.564,101.346 183.564,101.892 C183.564,102.412 183.486,102.412 183.486,102.932 C183.486,103.478 183.512,103.478 183.512,103.998 C183.512,104.518 183.798,104.518 183.798,105.038 C183.798,105.584 183.616,105.584 183.616,106.104 C183.616,106.624 183.434,106.624 183.434,107.17 C183.434,107.56 183.772,107.924 184.032,108.184 C184.292,108.444 184.656,108.418 185.046,108.418 C185.436,108.418 185.878,108.522 186.138,108.262 C186.398,108.002 186.372,107.56 186.372,107.17 C186.372,106.65 186.294,106.65 186.294,106.104 L186.294,105.064 L186.294,103.998 C186.294,103.478 186.554,103.478 186.554,102.958 C186.554,102.438 186.372,102.438 186.372,101.892 C186.372,101.372 186.346,101.372 186.346,100.852 C186.346,100.332 186.424,100.332 186.424,99.786 C186.424,99.266 186.346,99.266 186.346,98.746 C186.346,98.2 186.32,98.2 186.32,97.68 C186.32,97.16 186.346,97.16 186.346,96.64 C186.346,96.094 186.632,96.094 186.632,95.574 L186.632,95.574 Z M196.33,102.906 C196.33,102.594 196.278,102.204 196.278,101.84 C196.278,101.45 196.252,101.06 196.252,100.748 C196.252,100.124 196.2,100.202 196.2,99.656 C196.2,99.266 195.914,99.032 195.654,98.772 C195.394,98.512 195.16,98.174 194.77,98.174 C194.38,98.174 194.016,98.382 193.756,98.642 C193.496,98.902 193.418,99.266 193.418,99.656 C193.418,100.202 193.262,100.202 193.262,100.748 C193.262,101.268 193.288,101.268 193.288,101.814 C193.288,102.36 193.132,102.36 193.132,102.906 C193.132,103.452 193.34,103.452 193.34,103.998 C193.34,104.518 193.262,104.466 193.262,105.064 C193.262,105.428 193.418,105.818 193.418,106.156 C193.418,106.754 193.184,106.702 193.184,107.248 C193.184,107.638 193.574,107.898 193.834,108.184 C194.094,108.444 194.38,108.548 194.77,108.548 C195.186,108.548 195.576,108.574 195.836,108.314 C196.096,108.054 196.018,107.638 196.018,107.248 C196.018,106.702 196.304,106.702 196.304,106.156 C196.304,105.61 196.148,105.61 196.148,105.09 C196.148,104.544 196.096,104.544 196.096,103.998 C196.096,103.452 196.33,103.53 196.33,102.906 L196.33,102.906 Z M196.226,95.756 C196.33,95.366 196.252,95.106 196.07,94.768 C195.888,94.456 195.68,94.274 195.316,94.17 C194.926,94.066 194.666,94.144 194.354,94.326 C194.016,94.508 193.782,94.69 193.678,95.08 C193.574,95.47 193.392,95.418 193.288,95.808 C193.21,96.172 193.496,96.51 193.678,96.822 C193.86,97.134 194.042,97.446 194.406,97.55 C194.536,97.576 194.666,97.524 194.77,97.524 C195.108,97.524 195.42,97.55 195.68,97.342 C195.914,97.16 195.914,96.822 195.992,96.51 C196.096,96.12 196.122,96.12 196.226,95.756 L196.226,95.756 Z M212.944,101.112 C212.996,100.748 212.762,100.436 212.528,100.124 L212.71,99.994 C212.502,99.708 212.268,99.448 212.008,99.214 C211.774,98.98 211.566,98.668 211.28,98.486 C210.968,98.304 210.604,98.226 210.292,98.096 C209.98,97.966 209.668,97.732 209.33,97.68 C208.992,97.602 208.602,97.576 208.264,97.576 C207.926,97.602 207.562,97.732 207.198,97.81 C206.834,97.862 206.496,97.94 206.158,98.07 C205.82,98.2 205.56,98.512 205.274,98.694 C204.962,98.876 204.65,99.058 204.39,99.292 C204.13,99.552 203.896,99.786 203.662,100.098 C203.48,100.358 203.402,100.696 203.246,101.008 C203.116,101.346 203.064,101.658 202.986,101.996 C202.934,102.334 202.83,102.646 202.83,102.984 C202.83,103.348 202.96,103.66 203.038,104.024 C203.116,104.362 203.064,104.726 203.22,105.064 C203.35,105.402 203.35,105.818 203.558,106.13 C203.74,106.416 204.26,106.442 204.546,106.702 C204.806,106.962 204.988,107.274 205.3,107.482 C205.612,107.69 205.846,108.106 206.184,108.236 C206.522,108.392 206.938,108.418 207.302,108.47 C207.666,108.548 208.056,108.418 208.42,108.418 C208.42,108.418 208.42,108.314 208.446,108.314 C208.732,108.314 209.07,108.548 209.382,108.496 C209.668,108.444 209.928,108.132 210.214,108.028 C210.5,107.95 210.89,108.054 211.176,107.898 C211.436,107.768 211.566,107.378 211.826,107.196 C212.138,106.988 212.294,106.754 212.372,106.39 C212.424,106.026 212.606,105.584 212.372,105.246 C212.138,104.934 211.696,104.778 211.332,104.7 C210.968,104.648 210.682,104.882 210.344,105.116 C210.058,105.324 209.694,105.402 209.408,105.506 C209.096,105.61 208.732,105.48 208.42,105.48 C208.056,105.48 207.64,105.61 207.276,105.48 C206.938,105.35 206.704,104.986 206.418,104.726 C206.158,104.466 205.794,104.31 205.664,104.024 C205.534,103.712 205.742,103.322 205.742,102.984 C205.742,102.49 205.846,102.048 206.054,101.762 C206.21,101.528 206.444,101.372 206.704,101.216 C206.938,101.06 207.172,100.956 207.458,100.878 C207.744,100.8 207.978,100.514 208.264,100.514 C208.68,100.514 209.122,100.618 209.434,100.774 C209.798,100.93 209.954,101.346 210.162,101.684 C210.396,102.022 210.838,102.178 211.202,102.256 C211.566,102.308 211.904,102.178 212.242,101.97 C212.58,101.736 212.866,101.476 212.944,101.112 L212.944,101.112 Z" id="kyotoholic" fill="#4A4A4A"></path>
            </g>
        </g>
    </g>
</svg>